<svg width="22" height="20" viewBox="0 0 22 20" fill="none" xmlns="http://www.w3.org/2000/svg">
<path d="M18 9C18 13.9706 13.9706 18 9 18C4.02944 18 0 13.9706 0 9C0 4.02944 4.02944 0 9 0C13.9706 0 18 4.02944 18 9ZM1.87819 9C1.87819 12.9333 5.06673 16.1218 9 16.1218C12.9333 16.1218 16.1218 12.9333 16.1218 9C16.1218 5.06673 12.9333 1.87819 9 1.87819C5.06673 1.87819 1.87819 5.06673 1.87819 9Z" fill="#C7C9D1"/>
<path fill-rule="evenodd" clip-rule="evenodd" d="M18.9998 20.0002L13.9998 15.0002L16.1211 12.8789L21.1211 17.8789L18.9998 20.0002Z" fill="#C7C9D1"/>
</svg>
